<?xml version="1.0" encoding="utf-8"?>
<svg xmlns="http://www.w3.org/2000/svg" viewBox="93.566 79.968 353.56 77.962" width="353.56px" height="77.962px">
  <path d="M 141.803 156.313 L 110.41 156.313 L 110.41 99.993 L 93.566 99.993 L 93.566 81.48 L 141.803 81.48 Z M 197.907 157.93 Q 186.33 157.93 178.091 155.739 Q 169.852 153.549 164.585 149.977 Q 159.318 146.405 156.814 141.972 Q 154.311 137.54 154.311 133.055 L 183.879 133.055 Q 183.879 134.984 185.079 137.096 Q 186.278 139.208 189.329 140.668 Q 192.38 142.129 197.907 142.129 Q 206.147 142.129 209.902 138.739 Q 213.656 135.349 213.656 129.874 Q 207.398 130.656 199.68 130.656 Q 182.784 130.656 172.85 127.24 Q 162.916 123.825 158.614 118.062 Q 154.311 112.3 154.311 105.312 Q 154.311 98.324 158.614 92.562 Q 162.916 86.799 172.85 83.383 Q 182.784 79.968 199.68 79.968 Q 213.917 79.968 224.086 83.383 Q 234.255 86.799 239.652 92.562 Q 245.05 98.324 245.05 105.312 Q 245.05 120.018 243.277 130.108 Q 241.503 140.199 236.549 146.327 Q 231.595 152.454 222.287 155.192 Q 212.978 157.93 197.907 157.93 Z M 199.68 116.107 Q 206.095 116.107 209.041 114.36 Q 211.987 112.613 212.822 110.083 Q 213.656 107.554 213.656 105.312 Q 213.656 103.069 212.822 100.54 Q 211.987 98.011 209.041 96.264 Q 206.095 94.517 199.68 94.517 Q 193.266 94.517 190.294 96.264 Q 187.321 98.011 186.513 100.54 Q 185.705 103.069 185.705 105.312 Q 185.705 107.554 186.513 110.083 Q 187.321 112.613 190.294 114.36 Q 193.266 116.107 199.68 116.107 Z M 298.768 157.93 Q 281.872 157.93 271.938 154.696 Q 262.004 151.463 257.701 145.883 Q 253.399 140.303 253.399 133.316 Q 253.399 122.469 262.734 116.211 Q 256.372 111.309 256.372 101.609 Q 256.372 96.394 258.275 92.353 Q 260.178 88.311 264.898 85.574 Q 269.617 82.836 277.857 81.428 Q 286.096 80.02 298.768 80.02 Q 311.44 80.02 319.654 81.428 Q 327.867 82.836 332.587 85.574 Q 337.306 88.311 339.236 92.353 Q 341.165 96.394 341.165 101.609 Q 341.165 111.309 334.803 116.211 Q 344.137 122.469 344.137 133.316 Q 344.137 140.303 339.809 145.883 Q 335.481 151.463 325.547 154.696 Q 315.612 157.93 298.768 157.93 Z M 298.768 111.674 Q 305.183 111.674 308.129 110.448 Q 311.075 109.223 311.884 107.267 Q 312.692 105.312 312.692 103.069 Q 312.692 100.827 311.884 98.871 Q 311.075 96.916 308.129 95.69 Q 305.183 94.465 298.768 94.465 Q 292.354 94.465 289.382 95.69 Q 286.409 96.916 285.601 98.871 Q 284.793 100.827 284.793 103.069 Q 284.793 105.312 285.601 107.267 Q 286.409 109.223 289.382 110.448 Q 292.354 111.674 298.768 111.674 Z M 298.768 140.46 Q 305.183 140.46 308.129 139.234 Q 311.075 138.009 311.884 136.053 Q 312.692 134.098 312.692 131.855 Q 312.692 129.613 311.884 127.631 Q 311.075 125.65 308.129 124.424 Q 305.183 123.199 298.768 123.199 Q 292.354 123.199 289.382 124.424 Q 286.409 125.65 285.601 127.631 Q 284.793 129.613 284.793 131.855 Q 284.793 134.098 285.601 136.053 Q 286.409 138.009 289.382 139.234 Q 292.354 140.46 298.768 140.46 Z M 434.871 156.313 L 403.477 156.313 L 403.477 137.8 L 351.433 137.8 L 351.433 119.34 L 403.477 81.48 L 434.871 81.48 L 434.871 119.34 L 447.126 119.34 L 447.126 137.8 L 434.871 137.8 Z M 403.477 119.34 L 403.477 104.269 L 383.087 119.34 Z" style="fill: rgb(51, 51, 51); text-wrap-mode: nowrap;"/>
</svg>